#N canvas 98 0 772 599 12;
#X obj 383 512 t b;
#X obj 383 459 f;
#X obj 383 537 f;
#X msg 497 536 0;
#X obj 383 489 moses 1;
#X obj 497 508 t b f;
#X obj 463 469 moses 1;
#X obj 29 97 dbtorms;
#X obj 85 170 inlet~;
#X obj 29 170 line~;
#X obj 64 242 *~;
#X obj 36 321 dac~;
#X obj 29 127 pack 0 50;
#X text 121 146 audio in;
#X text 168 486 test if less than 1 -->;
#X text 134 513 if true convert to bang -->;
#X obj 148 170 inlet~;
#X obj 154 241 *~;
#X text 367 390 MUTE logic:;
#X obj 317 22 r \$0-master-lvl;
#X obj 383 563 s \$0-master-lvl;
#X obj 323 279 s \$0-master-out;
#X obj 29 71 r \$0-master-out;
#X obj 463 440 r \$0-master-out;
#X text 96 539 previous nonzero master-lvl -->;
#X text 168 443 recall previous;
#X text 168 461 value of master-lvl -->;
#X obj 85 192 hip~ 3;
#X obj 147 192 hip~ 3;
#X obj 461 48 inlet;
#X obj 248 220 env~;
#X obj 224 248 loadbang;
#X obj 238 316 f;
#X obj 419 118 vu 15 120 empty empty -1 -8 0 8 -66577 -1 1 0;
#X obj 504 246 loadbang;
#X obj 528 338 f;
#X obj 491 378 moses 1;
#X floatatom 577 376 5 0 0 0 - - -;
#X obj 543 214 bng 15 250 50 0 empty empty empty 17 7 0 10 -262144
-1 -1;
#X obj 240 189 *~;
#X obj 397 336 - 100;
#X obj 502 280 metro 1000;
#X obj 307 118 nbx 3 50 0 100 0 0 empty empty empty 0 -8 0 30 -262144
-1 -1 80 256;
#X obj 529 306 t b b;
#X msg 574 337 -100;
#X obj 361 189 tgl 50 0 empty empty protector 0 -7 0 10 -262144 -1
-1 1 1;
#X floatatom 191 349 5 0 0 0 - - -;
#X obj 153 313 moses 90;
#X obj 247 339 f;
#X obj 241 71 loadbang;
#X obj 273 397 spigot 1;
#X obj 231 425 s \$0-master-lvl;
#X obj 307 189 tgl 50 0 empty empty mute 0 -7 0 10 -262144 -1 -1 0
93.9001;
#X msg 204 377 bang;
#X obj 259 369 - 0.1;
#X obj 518 59 inlet;
#X obj 568 565 outlet;
#X text 561 546 salvar;
#X msg 48 395 \; pd dsp 1;
#X obj 48 366 loadbang;
#X obj 222 282 metro 50;
#X connect 0 0 2 0;
#X connect 1 0 4 0;
#X connect 2 0 20 0;
#X connect 3 0 20 0;
#X connect 4 0 0 0;
#X connect 4 1 5 0;
#X connect 5 0 3 0;
#X connect 6 1 2 1;
#X connect 7 0 12 0;
#X connect 8 0 27 0;
#X connect 9 0 17 0;
#X connect 9 0 10 0;
#X connect 10 0 30 0;
#X connect 10 0 11 0;
#X connect 12 0 9 0;
#X connect 16 0 28 0;
#X connect 17 0 30 0;
#X connect 17 0 11 1;
#X connect 19 0 42 0;
#X connect 22 0 7 0;
#X connect 23 0 1 1;
#X connect 23 0 6 0;
#X connect 27 0 10 1;
#X connect 28 0 17 1;
#X connect 29 0 52 0;
#X connect 30 0 32 1;
#X connect 30 0 47 0;
#X connect 31 0 60 0;
#X connect 32 0 40 0;
#X connect 34 0 41 0;
#X connect 35 0 36 0;
#X connect 36 0 33 0;
#X connect 36 1 37 0;
#X connect 36 1 33 0;
#X connect 37 0 36 1;
#X connect 37 0 33 1;
#X connect 38 0 41 0;
#X connect 38 0 60 0;
#X connect 39 0 30 0;
#X connect 40 0 36 0;
#X connect 40 0 35 1;
#X connect 41 0 43 0;
#X connect 42 0 21 0;
#X connect 42 0 48 1;
#X connect 42 0 56 0;
#X connect 43 0 35 0;
#X connect 43 1 44 0;
#X connect 44 0 36 1;
#X connect 45 0 50 1;
#X connect 46 0 53 0;
#X connect 47 1 46 0;
#X connect 48 0 54 0;
#X connect 49 0 45 0;
#X connect 50 0 51 0;
#X connect 52 0 1 0;
#X connect 53 0 48 0;
#X connect 54 0 50 0;
#X connect 55 0 42 0;
#X connect 59 0 58 0;
#X connect 60 0 32 0;
#X coords 0 0 1 1 160 160 1 300 100;
