#N canvas 0 25 1249 658 10;
#X obj 351 391 unpack;
#X obj 351 351 route 1 2 3 4;
#X obj 434 391 unpack;
#X obj 518 391 unpack;
#X obj 231 387 unpack;
#X text 59 133 FIDDLE - pitch estimator and sinusoidal peak finder
;
#X text 489 310 number of pitch outlets (1-3 \, default 1);
#X text 489 332 number of peaks to find (1-100 \, default 20);
#X text 489 354 number of peaks to output (default 0.);
#X obj 175 314 fiddle~ 1024 1 20 3;
#X text 286 463 amplitude;
#X text 296 478 (dB);
#X text 365 320 ------ arguments:;
#X text 489 288 window size (128-2048 \, default 1024);
#X obj 233 207 adc~;
#X obj 393 600 outlet~;
#X obj 538 591 outlet~;
#X obj 643 582 outlet~;
#X obj 482 500 tabosc4~ ratinhos;
#X obj 641 492 tabosc4~ ratinhos;
#X obj 334 510 tabosc4~ ratinhos;
#X floatatom 874 615 5 0 0 0 - - -;
#X obj 570 623 metro 300;
#X obj 675 614 bng 15 250 50 0 empty empty empty 17 7 0 10 -262144
-1 -1;
#X obj 566 646 float;
#X connect 0 0 19 0;
#X connect 1 0 0 0;
#X connect 1 1 2 0;
#X connect 1 2 3 0;
#X connect 2 0 20 0;
#X connect 2 0 24 1;
#X connect 3 0 18 0;
#X connect 9 2 4 0;
#X connect 9 4 1 0;
#X connect 14 0 9 0;
#X connect 18 0 16 0;
#X connect 19 0 17 0;
#X connect 20 0 15 0;
#X connect 22 0 24 0;
#X connect 23 0 22 0;
#X connect 24 0 21 0;
