#N canvas 239 0 635 566 10;
#X obj 184 25 key;
#X floatatom 137 111 5 0 0 0 - - -;
#X obj 97 134 select 97;
#X obj 98 164 select 106;
#X obj 98 192 select 10;
#X obj 95 214 select 53;
#X obj 179 138 s $tecla_A;
#X obj 179 167 s $tecla_B;
#X obj 180 194 s $tecla_C;
#X obj 180 218 s $tecla_D;
#X obj 165 87 spigot 1;
#X obj 98 24 tgl 15 0 empty empty empty 17 7 0 10 -262144 -1 -1 1 1
;
#X obj 60 92 loadbang;
#X msg 63 115 1;
#X obj 287 134 r $tecla_A;
#X obj 284 182 bng 15 250 50 0 empty empty empty 17 7 0 10 -262144
-1 -1;
#X obj 307 252 s $estado;
#X obj 290 205 contador_circular;
#X obj 381 141 loadbang;
#X floatatom 77 42 5 0 0 0 estado - -;
#X obj 164 472 s $estado_string;
#X msg 177 310 set partes;
#X msg 186 385 set effects;
#X msg 182 360 set music_selection;
#X msg 179 336 set loop_control;
#X msg 189 414 set auto;
#X msg 189 444 set bpm;
#X obj 175 276 route 0 1 2 3 4 5;
#X msg 330 176 5;
#X text 5 -17 Afro-beat Machine \, by Jabah Pureza. LICENSE: GPL v3.0
;
#X text 4 -3 http://jarbasjacome.wordpress.com;
#X connect 0 0 10 0;
#X connect 1 0 2 0;
#X connect 1 0 3 0;
#X connect 1 0 4 0;
#X connect 1 0 5 0;
#X connect 2 0 6 0;
#X connect 3 0 7 0;
#X connect 4 0 8 0;
#X connect 5 0 9 0;
#X connect 10 0 1 0;
#X connect 11 0 10 1;
#X connect 12 0 13 0;
#X connect 13 0 11 0;
#X connect 14 0 15 0;
#X connect 15 0 17 1;
#X connect 17 0 16 0;
#X connect 17 0 19 0;
#X connect 17 0 27 0;
#X connect 18 0 28 0;
#X connect 21 0 20 0;
#X connect 22 0 20 0;
#X connect 23 0 20 0;
#X connect 24 0 20 0;
#X connect 25 0 20 0;
#X connect 26 0 20 0;
#X connect 27 0 21 0;
#X connect 27 1 24 0;
#X connect 27 2 23 0;
#X connect 27 3 22 0;
#X connect 27 4 25 0;
#X connect 27 5 26 0;
#X connect 28 0 17 2;
#X coords 0 -1 1 1 100 40 1 20 20;
