#N canvas 184 38 675 506 12;
#X text 121 146 audio in;
#X obj 176 172 inlet~;
#X obj 299 168 r \$0-master-lvl;
#X obj 299 277 s \$0-master-out;
#X obj 29 71 r \$0-master-out;
#X obj 517 147 inlet;
#X obj 461 149 inlet;
#X obj 394 208 tgl 30 0 empty empty mute 0 -4 0 10 -262144 -1 -1 0
1;
#X obj 303 208 nbx 4 30 0 1 0 0 empty empty empty 0 -8 0 20 -1 -262144
-262144 0.505855 256;
#X obj 489 286 adc~;
#X obj 494 328 env~ 256;
#X obj 428 208 tgl 30 0 empty empty auto 0 -5 0 10 -1 -258049 -1 1
1;
#X msg 552 292 0;
#X obj 338 460 f;
#X obj 321 508 s \$0-master-lvl;
#X obj 293 363 select 1;
#X obj 379 360 select 0;
#X msg 291 390 0;
#X msg 363 394 1;
#X msg 421 422 bang;
#X obj 569 145 inlet;
#X obj 271 421 spigot 1;
#X obj 502 360 spigot 0;
#X obj 510 475 f;
#X obj 62 350 outlet~;
#X obj 155 350 outlet~;
#X obj 228 489 outlet;
#X text 195 466 salvar vol;
#X obj 26 176 inlet~;
#X obj 545 421 / 100;
#X msg 127 299 0;
#X obj 220 213 float;
#X obj 110 213 spigot;
#X msg 233 244 1;
#X obj 230 336 bang;
#X obj 174 308 select 1;
#X obj 78 260 *~ 0;
#X obj 168 254 *~ 0;
#X obj 184 86 loadbang;
#X msg 149 123 1;
#X obj 502 503 - 0.2;
#X obj 538 391 metro 100;
#X obj 579 489 * 8;
#X floatatom 611 344 5 0 0 0 - - -;
#X obj 576 459 - 0.6;
#X connect 1 0 37 0;
#X connect 2 0 8 0;
#X connect 4 0 31 1;
#X connect 4 0 32 0;
#X connect 5 0 7 0;
#X connect 6 0 8 0;
#X connect 7 0 35 0;
#X connect 8 0 3 0;
#X connect 8 0 21 0;
#X connect 8 0 26 0;
#X connect 9 0 10 0;
#X connect 10 0 22 0;
#X connect 10 0 43 0;
#X connect 11 0 15 0;
#X connect 11 0 16 0;
#X connect 11 0 22 1;
#X connect 11 0 41 0;
#X connect 12 0 11 0;
#X connect 13 0 14 0;
#X connect 15 0 17 0;
#X connect 16 0 18 0;
#X connect 16 0 19 0;
#X connect 17 0 21 1;
#X connect 18 0 21 1;
#X connect 19 0 13 0;
#X connect 20 0 11 0;
#X connect 21 0 13 1;
#X connect 22 0 29 0;
#X connect 23 0 40 0;
#X connect 28 0 36 0;
#X connect 29 0 44 0;
#X connect 30 0 32 1;
#X connect 30 0 36 1;
#X connect 30 0 37 1;
#X connect 31 0 36 1;
#X connect 31 0 37 1;
#X connect 32 0 36 1;
#X connect 32 0 37 1;
#X connect 33 0 32 1;
#X connect 34 0 31 0;
#X connect 35 0 30 0;
#X connect 35 1 33 0;
#X connect 35 1 34 0;
#X connect 36 0 24 0;
#X connect 37 0 25 0;
#X connect 38 0 39 0;
#X connect 39 0 32 1;
#X connect 40 0 14 0;
#X connect 41 0 23 0;
#X connect 42 0 23 1;
#X connect 44 0 42 0;
#X coords 0 0 1 1 165 40 1 300 200;
